<svg width="192" height="192" viewBox="0 0 192 192" fill="none" xmlns="http://www.w3.org/2000/svg">
<path d="M138.917 34H52.0884C41.5452 34 33 42.7491 33 53.542V53.7474V139.463C33 150.151 41.3871 158.842 51.7932 159H138.869C149.413 159 157.963 150.256 157.963 139.463L158 53.542C158 42.7491 149.46 34 138.917 34ZM62.4049 148.987L57.6711 149.039C51.9356 149.039 47.286 144.33 47.286 138.52L47.2597 137.693V58.3458L47.2913 54.0687C47.5074 48.4484 51.7827 43.929 57.3758 43.929H67.007C75.7368 43.929 82.8113 51.514 82.8113 60.4527C82.8113 64.8773 81.0769 68.8911 78.2672 71.8092L53.6963 96.7239L76.7279 120.158C79.6958 123.219 81.4881 127.232 81.4881 131.631C81.4881 141.217 72.9481 148.987 62.4049 148.987ZM133.208 148.908L90.2706 148.892C90.2706 148.892 95.2312 138.173 95.2312 131.536C95.2312 123.44 92.5268 116.213 88.2885 111.43L73.6018 96.471L88.5889 80.9955C93.054 76.8079 96.0166 69.3704 96.0166 60.8952C96.0166 54.1846 94.161 48.243 91.172 43.929H101.573C110.303 43.929 117.382 51.514 117.382 60.4527C117.382 64.8773 115.648 68.8911 112.838 71.8092L88.7365 96.4658L138.796 147.47C137.209 148.465 135.211 148.908 133.208 148.908ZM143.693 132.984L107.82 96.45L124.905 79.0992C128.379 74.7537 130.588 68.2116 130.588 60.8952C130.588 54.1424 128.706 48.0481 125.69 43.7341L133.334 43.9659C139.07 43.9659 143.719 48.6749 143.719 54.4848L143.693 132.984Z" fill="#00529C"/>
</svg>
