<svg width="192" height="192" viewBox="0 0 192 192" fill="none" xmlns="http://www.w3.org/2000/svg">
<path d="M16.5996 40H45.3616C50.1524 40 53.8347 41.1989 56.3917 43.5854C58.9598 45.972 60.2467 48.93 60.2467 52.4426C60.2467 55.4006 59.3331 57.9384 57.5058 60.056C56.2803 61.4622 54.4976 62.5826 52.1468 63.395C55.7121 64.2577 58.3359 65.7479 60.0294 67.8431C61.7062 69.9496 62.553 72.5938 62.553 75.7703C62.553 78.3641 61.9513 80.6947 60.7592 82.7675C59.5559 84.8404 57.9237 86.4706 55.8402 87.6807C54.5533 88.4258 52.6091 88.9748 50.0076 89.3109C46.5481 89.7647 44.253 90 43.1221 90H16.6052V40.0112L16.5996 40ZM32.0975 59.6135H38.7769C41.1723 59.6135 42.838 59.1933 43.7906 58.3697C44.7265 57.5294 45.1889 56.3305 45.1889 54.7731C45.1889 53.3165 44.7265 52.1793 43.7906 51.3613C42.8436 50.5378 41.2113 50.1289 38.8827 50.1289H32.1031V59.6135H32.0975ZM32.0975 79.2493H39.93C42.5817 79.2493 44.4424 78.7843 45.5175 77.8431C46.6038 76.902 47.1498 75.6303 47.1498 74.0392C47.1498 72.5602 46.615 71.3726 45.5398 70.4762C44.4646 69.5798 42.5873 69.126 39.891 69.126H32.0919V79.2493H32.0975ZM70.7866 89.9888V40H96.3843C101.131 40 104.763 40.409 107.264 41.2325C109.776 42.0448 111.799 43.563 113.342 45.7815C114.879 47.9944 115.643 50.6947 115.643 53.8712C115.643 56.6555 115.052 59.0364 113.882 61.0532C112.701 63.0644 111.08 64.6947 109.036 65.9552C107.715 66.7451 105.921 67.4118 103.643 67.9216C105.47 68.5378 106.802 69.1541 107.648 69.7703C108.206 70.1793 109.024 71.0532 110.1 72.3866C111.175 73.7367 111.893 74.7619 112.25 75.4958L119.681 89.9888H102.323L94.117 74.7059C93.0753 72.7395 92.1505 71.4454 91.3261 70.8515C90.2286 70.084 88.964 69.6975 87.5658 69.6975H86.2121V89.9832H70.7866V89.9888ZM86.2121 60.2521H92.6909C93.3872 60.2521 94.7409 60.0336 96.752 59.5742C97.7714 59.3669 98.6015 58.8403 99.2533 58.0056C99.8884 57.1653 100.211 56.2017 100.211 55.1092C100.211 53.4902 99.7045 52.2577 98.6851 51.395C97.6656 50.521 95.7548 50.0896 92.9583 50.0896H86.2121V60.2521ZM125.208 40H140.6V89.9888H125.208V40Z" fill="#00529C"/>
<path d="M16.5996 103H32.0683V140.679H56.1935V152.994H16.6052V103H16.5996ZM62.8037 103H76.6969V112.452H62.8037V103ZM62.8037 116.783H76.6969V152.994H62.8037V116.783ZM85.5666 116.783H98.5067V122.672C100.441 120.262 102.398 118.554 104.377 117.517C106.356 116.48 108.767 115.959 111.609 115.959C115.455 115.959 118.461 117.114 120.636 119.394C122.8 121.674 123.888 125.204 123.888 129.972V152.994H109.933V133.076C109.933 130.807 109.512 129.199 108.677 128.258C107.825 127.305 106.653 126.84 105.122 126.84C103.446 126.84 102.072 127.479 101.035 128.751C99.9868 130.017 99.4654 132.314 99.4654 135.609V153H85.5722V116.789L85.5666 116.783ZM132.18 103H146.376V128.784L156.754 116.783H173.854L160.841 129.468L174.6 152.994H158.935L151.596 138.466L146.376 143.576V152.994H132.18V103Z" fill="#F58220"/>
</svg>
