<svg width="192" height="192" viewBox="0 0 192 192" fill="none" xmlns="http://www.w3.org/2000/svg">
<path d="M95.6104 33.2197C130.067 33.2199 158 61.1533 158 95.6104C158 130.067 130.067 158 95.6104 158C61.1533 158 33.2199 130.067 33.2197 95.6104C33.2197 61.1531 61.1531 33.2197 95.6104 33.2197ZM120.811 71.3145C117.521 70.707 114.142 70.7871 110.885 71.5498C107.09 72.4342 103.36 73.5787 99.7227 74.9766C95.05 76.6331 90.4577 78.5877 85.7051 80.0615C82.3572 81.1972 78.8634 81.8473 75.3311 81.9922C70.391 82.0833 65.5433 80.6465 61.4502 77.8789C61.0161 77.5933 60.5017 77.1247 59.999 77.4102C59.4963 77.6958 59.4961 78.3591 59.4961 78.9189V113.628C59.5107 114.11 59.6369 114.582 59.8672 115.008C60.1304 115.494 60.5196 115.9 60.9932 116.186C64.7625 118.579 69.0989 119.931 73.5605 120.104C77.5863 120.214 81.6042 119.686 85.4648 118.539C90.126 117.248 94.605 115.58 99.1748 114.038C103.757 112.3 108.527 111.104 113.387 110.474C117.84 109.962 122.35 110.563 126.514 112.222C127.892 112.805 129.229 113.485 130.513 114.255C131.472 114.815 131.963 114.575 131.963 113.433V95.873L131.997 95.9531V78.8154C132.026 78.0715 131.856 77.3332 131.505 76.6768C131.153 76.0202 130.633 75.4691 129.998 75.0801C127.228 73.2042 124.1 71.922 120.811 71.3145Z" fill="#008CEB"/>
</svg>
