<svg width="192" height="192" viewBox="0 0 192 192" fill="none" xmlns="http://www.w3.org/2000/svg">
<path d="M66.3838 139.057C76.0433 138.52 83.8922 141.879 92.2793 145.442C101.672 149.474 111.467 153.572 125.086 153.035C128.306 152.967 131.66 152.295 135.081 151.153C137.363 150.346 139.912 151.557 140.785 153.975C141.141 155.081 141.053 156.282 140.539 157.324C140.025 158.365 139.126 159.165 138.033 159.553C133.807 160.963 129.582 161.772 125.489 161.906C123.811 161.972 122.202 162.04 120.591 161.972C107.508 161.571 97.713 157.403 88.9248 153.64C81.2109 150.279 74.4342 147.524 67.0537 147.86C60.7574 148.33 56.2001 151.949 56.1201 151.961C54.2404 153.438 51.4227 153.103 49.9473 151.221C48.4718 149.338 48.739 146.584 50.6172 145.104C50.8864 144.904 57.2589 139.796 66.3838 139.057ZM65.9004 125.063C79.7983 124.435 89.0622 128.622 97.9922 132.669C106.518 136.437 114.508 140.138 126.727 139.58C136.327 139.229 144.72 134.135 148.882 131.134L148.883 131.135C150.896 129.599 153.784 130.157 155.192 132.252C156.603 134.415 156.132 137.346 154.051 138.81C149.017 142.371 138.945 148.442 127.063 148.931C125.653 149 124.31 149 122.968 149C110.882 148.79 102.492 144.953 94.2998 141.253C85.9743 137.485 78.1192 133.925 66.2363 134.415C55.9634 134.834 46.9006 141.253 42.4033 145.022C41.9424 145.416 41.4105 145.711 40.8389 145.889C40.2674 146.068 39.6676 146.127 39.0742 146.062C38.4807 145.997 37.9052 145.809 37.3818 145.511C36.8585 145.213 36.3974 144.81 36.0254 144.325C35.6462 143.846 35.3621 143.293 35.1904 142.699C35.0188 142.105 34.9621 141.481 35.0244 140.864C35.0868 140.247 35.2669 139.648 35.5537 139.104C35.8405 138.56 36.2286 138.081 36.6953 137.694C42.0679 133.228 53.0098 125.551 65.9004 125.063Z" fill="#2673DD"/>
<path d="M96.0011 29C129.688 29 157 56.5153 157 90.3818C157 106.201 151.095 119.856 141.433 130.742C137.608 132.498 133.11 134.663 128.346 134.934C126.87 135 125.46 135 124.051 135C138.681 125.604 148.343 109.11 148.343 90.4502C148.343 61.3134 124.788 37.5859 95.8653 37.5859C66.9425 37.5861 43.3878 61.3155 43.3878 90.4521C43.3879 102.823 47.6161 114.249 54.7296 123.239C51.948 124.093 49.2337 125.155 46.6095 126.417C39.0449 115.95 34.979 103.331 35.0001 90.3838C35.0001 56.5139 62.312 29 96.0011 29ZM96.0684 42C122.481 42 144.066 63.6184 144 90.1543C144 109.619 132.469 126.39 115.911 134C109.945 132.855 104.85 130.768 99.5528 128.612L99.42 128.546C90.1682 124.707 79.6429 120.396 64.3585 121.272C62.8165 121.407 61.3416 121.54 59.8673 121.811C52.2048 113.064 47.9849 101.806 48.0001 90.1543C48.0003 63.6184 69.6539 42.0001 96.0684 42ZM97.4073 64.0908C95.4575 64.081 93.5162 64.3533 91.6436 64.8994C89.8329 65.4362 88.2251 66.3147 86.7491 67.3916C85.2749 68.4685 84.1352 69.8831 83.2628 71.5664C82.4596 73.2514 81.9896 75.2033 81.922 77.4268C81.922 80.8612 82.7926 83.6894 84.7384 85.9111C86.6811 88.2009 89.0287 89.8186 91.8438 90.8955C93.1555 91.4859 94.4987 92.0029 95.8673 92.4443C97.274 92.9165 98.6165 93.3871 99.8204 93.9951C100.945 94.499 101.968 95.207 102.838 96.083C103.71 96.8916 104.113 97.9006 104.113 99.1797C104.044 100.865 103.375 102.212 101.9 103.087C100.426 103.962 98.7502 104.433 96.7384 104.365C94.3916 104.365 92.112 103.827 89.9005 102.75C87.7975 101.806 85.8708 100.507 84.2032 98.9111L79.3077 105.847C79.7777 106.387 80.5151 107.06 81.587 107.802C82.7589 108.747 84.0158 109.58 85.3409 110.292C86.8168 111.1 88.4921 111.775 90.3028 112.38C92.1136 112.988 94.1245 113.258 96.336 113.324C98.6827 113.392 100.894 113.122 102.906 112.516C104.917 111.909 106.659 111.034 108.201 109.821C109.677 108.609 110.883 107.195 111.755 105.444C112.558 103.759 113.028 101.739 113.096 99.5176C113.162 97.228 112.76 95.2748 111.955 93.5898C111.084 91.9065 110.012 90.4247 108.604 89.2119C107.175 87.9665 105.598 86.9031 103.91 86.0459C102.169 85.1711 100.426 84.4299 98.6827 83.8252C97.8779 83.4872 96.9389 83.1508 96.0665 82.8145C95.1959 82.4103 94.3252 82.0725 93.5206 81.5342C92.7159 81.0637 92.0463 80.4574 91.5763 79.7832C91.1062 79.1105 90.9054 78.3013 90.9054 77.4248C90.9055 75.9437 91.5764 74.7991 92.9171 74.0586C94.1902 73.2501 95.7321 72.9137 97.4093 73.0479C99.6207 73.1837 101.497 73.5865 103.039 74.2607C104.514 74.9334 105.99 75.7423 107.331 76.7529L112.09 69.8828C110.077 68.333 107.922 66.9797 105.653 65.8418C103.374 64.7633 100.627 64.1571 97.5431 64.0908H97.4073Z" fill="#EA5F00"/>
</svg>
