<svg width="192" height="192" viewBox="0 0 192 192" fill="none" xmlns="http://www.w3.org/2000/svg">
<path d="M129.575 40.9318C130.278 40.8701 130.987 40.9559 131.655 41.1827C132.323 41.4096 132.937 41.7732 133.457 42.2501C133.977 42.7271 134.393 43.307 134.677 43.9532C134.961 44.5993 135.107 45.2974 135.106 46.0031V54.337C135.106 54.9505 134.862 55.539 134.429 55.9728C133.995 56.4066 133.406 56.6505 132.793 56.6505H50.0469C49.4439 56.67 48.8723 56.9247 48.4541 57.3595C48.0359 57.7944 47.8044 58.3753 47.8086 58.9786C47.8086 60.3276 48.344 61.6214 49.2979 62.5753C50.2517 63.5292 51.5456 64.0646 52.8945 64.0646L145.146 64.1095C148.213 64.1095 151.155 65.3281 153.324 67.4972C155.493 69.6663 156.712 72.6083 156.712 75.6759V140.434C156.712 143.501 155.493 146.444 153.324 148.613C151.155 150.782 148.213 152.001 145.146 152.001H46.7852C43.7177 152.001 40.7756 150.782 38.6064 148.613C36.4373 146.444 35.2188 143.501 35.2188 140.434V59.9132C35.208 57.0102 36.2894 54.2093 38.248 52.0665C40.2066 49.9239 42.8989 48.5963 45.791 48.3468L129.575 40.9318ZM95.5273 77.337C85.7106 77.3667 77.9697 83.5799 77.332 91.8693C76.9069 97.8601 79.873 102.709 86.2295 106.416C89.9866 108.158 93.8384 109.688 97.7666 110.999C106.886 113.831 111.617 118.932 110.505 124.863C109.497 130.172 103.831 133.657 96.0166 133.761C90.1428 133.44 84.5168 131.288 79.9277 127.608L79.2012 127.044C79.1031 126.938 78.9816 126.856 78.8467 126.805C78.7118 126.754 78.5664 126.735 78.4229 126.749C78.2793 126.764 78.1407 126.811 78.0186 126.888C77.8964 126.965 77.793 127.068 77.7178 127.192L75.3604 130.632C74.9601 131.18 75.1671 131.492 75.582 131.833C77.3898 133.35 79.3421 134.686 81.4102 135.822C85.9266 138.119 90.8928 139.395 95.957 139.56C99.6061 139.732 103.25 139.11 106.635 137.735C109.332 136.654 111.686 134.863 113.448 132.553C115.1 130.387 116.174 127.84 116.573 125.151L116.674 124.76C117.86 115.091 111.632 108.937 95.2012 103.688C87.2381 100.959 83.4862 97.4005 83.5752 92.507C83.9014 87.0796 88.9584 83.1199 95.6611 82.9865C100.944 83.041 106.097 84.6332 110.49 87.5685C111.098 87.954 111.513 87.8803 111.854 87.3761C112.374 86.6345 113.471 84.8252 113.856 84.1876C113.943 84.071 114.003 83.9364 114.032 83.7941C114.061 83.6517 114.058 83.5047 114.024 83.3634C113.99 83.222 113.927 83.0894 113.836 82.9757C113.745 82.862 113.63 82.7698 113.5 82.7052C111.894 81.6551 110.203 80.7423 108.443 79.9767C104.357 78.2443 99.9656 77.3467 95.5273 77.337Z" fill="#EE4D2D"/>
</svg>
